<svg xmlns="http://www.w3.org/2000/svg" viewBox="0 0 58 58.57">
  <defs>
    <style>
      .cls-1, .cls-2 {
        fill: #1a1a1a;
      }

      .cls-1 {
        font-size: 20px;
        font-family: AdobeArabic-Bold, Adobe Arabic;
        font-weight: 700;
      }

      .cls-3 {
        fill: rgba(0,0,0,0);
        stroke: rgba(0,0,0,0);
      }

      .cls-4 {
        fill: #ee6425;
      }
    </style>
  </defs>
  <g id="Group_20" data-name="Group 20" transform="translate(-778 -207.43)">
    <text id="Footwear" class="cls-1" transform="translate(778 259)"><tspan x="0" y="0">Footwear</tspan></text>
    <g id="footwear_logo" transform="translate(1353.97 213.726)">
      <g id="Group_17" data-name="Group 17" transform="translate(-569.114 -5.781)">
        <path id="Path_92" data-name="Path 92" class="cls-2" d="M27.106.146a.394.394,0,0,0-.444-.121l-14.7,5.45a.349.349,0,0,0-.235.323v3.79l5.949,5.64a1.318,1.318,0,0,1-.024,1.965,1.584,1.584,0,0,1-2.12-.022l-3.8-3.607v2.282a3.036,3.036,0,0,1-.129.867l4.81,4.977a1.319,1.319,0,0,1-.116,1.963,1.584,1.584,0,0,1-2.117-.108l-3.97-4.108-1.133,2.1,3.392,3.916a1.323,1.323,0,0,1-.231,1.954,1.569,1.569,0,0,1-.938.306,1.546,1.546,0,0,1-1.17-.52L7.6,24.273,6.551,26.211A3.121,3.121,0,0,1,4.7,27.7L-.4,29.275A3.514,3.514,0,0,0-2.97,32.581v2.441H5.559L37.711,13.908Z" transform="translate(2.97 -0.001)"/>
        <g id="Group_16" data-name="Group 16">
          <path id="Path_93" data-name="Path 93" class="cls-3" d="M27.106.146a.394.394,0,0,0-.444-.121l-14.7,5.45a.349.349,0,0,0-.235.323v3.79l5.949,5.64a1.318,1.318,0,0,1-.024,1.965,1.584,1.584,0,0,1-2.12-.022l-3.8-3.607v2.282a3.036,3.036,0,0,1-.129.867l4.81,4.977a1.319,1.319,0,0,1-.116,1.963,1.584,1.584,0,0,1-2.117-.108l-3.97-4.108-1.133,2.1,3.392,3.916a1.323,1.323,0,0,1-.231,1.954,1.569,1.569,0,0,1-.938.306,1.546,1.546,0,0,1-1.17-.52L7.6,24.273,6.551,26.211A3.121,3.121,0,0,1,4.7,27.7L-.4,29.275A3.514,3.514,0,0,0-2.97,32.581v2.441H5.559L37.711,13.908Z" transform="translate(2.97 -0.001)"/>
        </g>
      </g>
      <g id="Group_19" data-name="Group 19" transform="translate(-569.009 8.375)">
        <path id="Path_94" data-name="Path 94" class="cls-4" d="M5.731,265.33h-8.7v.766a3.513,3.513,0,0,0,3.589,3.422H7.473a4.7,4.7,0,0,0,2.7-.835l27.054-18.76a4.183,4.183,0,0,0,1.017-5.977l-.154-.206L6.448,265.112A1.283,1.283,0,0,1,5.731,265.33Z" transform="translate(2.97 -243.74)"/>
        <g id="Group_18" data-name="Group 18">
          <path id="Path_95" data-name="Path 95" class="cls-3" d="M5.731,265.33h-8.7v.766a3.513,3.513,0,0,0,3.589,3.422H7.473a4.7,4.7,0,0,0,2.7-.835l27.054-18.76a4.183,4.183,0,0,0,1.017-5.977l-.154-.206L6.448,265.112A1.283,1.283,0,0,1,5.731,265.33Z" transform="translate(2.97 -243.74)"/>
        </g>
      </g>
    </g>
  </g>
</svg>
