<svg xmlns="http://www.w3.org/2000/svg" viewBox="0 0 624.45 428.76">
  <defs>
    <style>
      .cls-1 {
        fill: #adadad;
      }

      .cls-2 {
        fill: #ff5c4d;
      }

      .cls-3 {
        fill: #3f3d56;
      }
    </style>
  </defs>
  <g id="undraw_portfolio_re_qwm5-1" transform="translate(0 -186.474)">
    <path id="Path_7" data-name="Path 7" class="cls-1" d="M791.578,328.857h-607a8.728,8.728,0,0,0-8.72,8.72V748.9a8.728,8.728,0,0,0,8.72,8.72h607a8.713,8.713,0,0,0,6.631-3.06,2.039,2.039,0,0,0,.19-.24,8.162,8.162,0,0,0,1.25-2.11,8.506,8.506,0,0,0,.66-3.31V337.577A8.73,8.73,0,0,0,791.578,328.857Zm6.24,420.04a6.176,6.176,0,0,1-1.03,3.42,6.446,6.446,0,0,1-2.36,2.12,6.184,6.184,0,0,1-2.85.69h-607a6.238,6.238,0,0,1-6.23-6.23V337.577a6.238,6.238,0,0,1,6.23-6.23h607a6.24,6.24,0,0,1,6.24,6.231Z" transform="translate(-175.858 -142.383)"/>
    <rect id="Rectangle_20" data-name="Rectangle 20" class="cls-1" width="621.957" height="2.493" transform="translate(1.243 221.423)"/>
    <circle id="Ellipse_11" data-name="Ellipse 11" class="cls-1" cx="7.478" cy="7.478" r="7.478" transform="translate(14.953 197.692)"/>
    <circle id="Ellipse_12" data-name="Ellipse 12" class="cls-1" cx="7.478" cy="7.478" r="7.478" transform="translate(36.454 197.692)"/>
    <circle id="Ellipse_13" data-name="Ellipse 13" class="cls-1" cx="7.478" cy="7.478" r="7.478" transform="translate(57.954 197.692)"/>
    <path id="Path_8" data-name="Path 8" class="cls-2" d="M644.177,421.509h-312a13,13,0,0,1,0-26h312a13,13,0,1,1,0,26Zm-312-24a11,11,0,0,0,0,22h312a11,11,0,1,0,0-22Z" transform="translate(-175.858 -142.383)"/>
    <path id="Path_9" data-name="Path 9" class="cls-2" d="M358.083,574.127h-120a17.019,17.019,0,0,1-17-17v-56a17.019,17.019,0,0,1,17-17h120a17.019,17.019,0,0,1,17,17v56a17.019,17.019,0,0,1-17,17Z" transform="translate(-175.858 -142.383)"/>
    <path id="Path_10" data-name="Path 10" class="cls-2" d="M548.083,574.127h-120a17.019,17.019,0,0,1-17-17v-56a17.019,17.019,0,0,1,17-17h120a17.019,17.019,0,0,1,17,17v56a17.019,17.019,0,0,1-17,17Z" transform="translate(-175.858 -142.383)"/>
    <path id="Path_11" data-name="Path 11" class="cls-2" d="M738.083,574.127h-120a17.019,17.019,0,0,1-17-17v-56a17.019,17.019,0,0,1,17-17h120a17.019,17.019,0,0,1,17,17v56a17.019,17.019,0,0,1-17,17Z" transform="translate(-175.858 -142.383)"/>
    <path id="Path_12" data-name="Path 12" class="cls-2" d="M358.083,692.127h-120a17.019,17.019,0,0,1-17-17v-56a17.019,17.019,0,0,1,17-17h120a17.019,17.019,0,0,1,17,17v56a17.019,17.019,0,0,1-17,17Z" transform="translate(-175.858 -142.383)"/>
    <path id="Path_13" data-name="Path 13" class="cls-2" d="M548.083,692.127h-120a17.019,17.019,0,0,1-17-17v-56a17.019,17.019,0,0,1,17-17h120a17.019,17.019,0,0,1,17,17v56a17.019,17.019,0,0,1-17,17Z" transform="translate(-175.858 -142.383)"/>
    <path id="Path_14" data-name="Path 14" class="cls-2" d="M738.083,692.127h-120a17.019,17.019,0,0,1-17-17v-56a17.019,17.019,0,0,1,17-17h120a17.019,17.019,0,0,1,17,17v56a17.019,17.019,0,0,1-17,17Z" transform="translate(-175.858 -142.383)"/>
    <path id="Path_28" data-name="Path 28" class="cls-3" d="M799.028,757.617h-6.856a16.766,16.766,0,0,1,0-2h6.856a16.8,16.8,0,0,1,0,2Z" transform="translate(-175.858 -142.383)"/>
  </g>
</svg>
